<svg width="250" height="250" xmlns="http://www.w3.org/2000/svg">
  <!-- 背景 -->
  <rect width="100%" height="100%" fill="#f5f5f5"/>
  
  <!-- 渐变定义 -->
  <defs>
    <linearGradient id="top-gradient" x1="0%" y1="0%" x2="0%" y2="100%">
      <stop offset="0%" stop-color="#00a896"/>
      <stop offset="100%" stop-color="#008a7a"/>
    </linearGradient>
  </defs>
  
  <!-- 上衣 -->
  <path d="M75,140 C75,180 85,220 125,220 C165,220 175,180 175,140 Z" fill="url(#top-gradient)"/>
  
  <!-- 项链 -->
  <path d="M115,160 L135,160" stroke="#f0d0b0" stroke-width="3" fill="none"/>
  <circle cx="125" cy="160" r="5" fill="#f0d0b0"/>
  
  <!-- 头部轮廓 -->
  <circle cx="125" cy="90" r="50" fill="#f0d0b0"/>
  
  <!-- 头发 -->
  <path d="M125,40 C90,40 75,60 75,90 C75,100 80,110 85,110 C85,70 95,50 125,50 C155,50 165,70 165,110 C170,110 175,100 175,90 C175,60 160,40 125,40" fill="#663300"/>
  
  <!-- 发髻 -->
  <circle cx="125" cy="50" r="15" fill="#663300"/>
  
  <!-- 脸部特征简化 -->
  <circle cx="105" cy="90" r="5" fill="#333"/><!-- 左眼 -->
  <circle cx="145" cy="90" r="5" fill="#333"/><!-- 右眼 -->
  <path d="M105 120 Q125 135 145 120" stroke="#333" stroke-width="3" fill="transparent"/><!-- 微笑 -->
  
  <!-- 头发 -->
  <path d="M65 100 Q65 40 125 40 Q185 40 185 100" stroke="#333" stroke-width="10" fill="transparent"/>
  
  <!-- 文字标签 -->
  <text x="125" y="230" font-family="Arial" font-size="14" text-anchor="middle" fill="white">张女士</text>
</svg>